<svg viewBox="0 0 40 46" xmlns="http://www.w3.org/2000/svg">
  <defs>
    <linearGradient id="g" x1="0" y1="0" x2="1" y2="1">
      <stop offset="0%" stop-color="#3b82f6"/>
      <stop offset="100%" stop-color="#7c3aed"/>
    </linearGradient>
    <linearGradient id="gh" x1="0" y1="0" x2="0" y2="1">
      <stop offset="0%" stop-color="rgba(255,255,255,0.22)"/>
      <stop offset="100%" stop-color="rgba(255,255,255,0)"/>
    </linearGradient>
  </defs>
  <!-- Shield -->
  <path d="M20 2L37 8.5V22C37 31.5 29.5 39.5 20 43C10.5 39.5 3 31.5 3 22V8.5L20 2Z" fill="url(#g)"/>
  <!-- Inner highlight -->
  <path d="M20 5L34 10.8V22C34 30.5 27.5 37.5 20 40.5C12.5 37.5 6 30.5 6 22V10.8L20 5Z" fill="url(#gh)"/>
  <!-- Lock shackle -->
  <path d="M14.5 22V18.5C14.5 15.4 17 13 20 13C23 13 25.5 15.4 25.5 18.5V22"
        stroke="white" stroke-width="2.4" stroke-linecap="round" fill="none" opacity="0.95"/>
  <!-- Lock body -->
  <rect x="12" y="21.5" width="16" height="11.5" rx="2.5" fill="white" opacity="0.96"/>
  <!-- Keyhole -->
  <circle cx="20" cy="26.8" r="2.2" fill="#3b82f6"/>
  <rect x="19.1" y="27.5" width="1.8" height="3" rx="0.9" fill="#3b82f6"/>
</svg>
